HIERARCHY
ROOT Hips
{
	OFFSET 0.00000 0.00000 0.00000
	CHANNELS 6 Xposition Yposition Zposition Zrotation Yrotation Xrotation 
	JOINT LHipJoint
	{
		OFFSET 0 0 0
		CHANNELS 3 Zrotation Yrotation Xrotation
		JOINT LeftUpLeg
		{
			OFFSET 1.41496 -1.84582 0.78394
			CHANNELS 3 Zrotation Yrotation Xrotation
			JOINT LeftLeg
			{
				OFFSET 2.58040 -7.08960 0.00000
				CHANNELS 3 Zrotation Yrotation Xrotation
				JOINT LeftFoot
				{
					OFFSET 2.64719 -7.27309 0.00000
					CHANNELS 3 Zrotation Yrotation Xrotation
					JOINT LeftToeBase
					{
						OFFSET 0.20718 -0.56921 2.20259
						CHANNELS 3 Zrotation Yrotation Xrotation
						End Site
						{
							OFFSET 0.00000 -0.00000 1.14243
						}
					}
				}
			}
		}
	}
	JOINT RHipJoint
	{
		OFFSET 0 0 0
		CHANNELS 3 Zrotation Yrotation Xrotation
		JOINT RightUpLeg
		{
			OFFSET -1.40551 -1.84582 0.78394
			CHANNELS 3 Zrotation Yrotation Xrotation
			JOINT RightLeg
			{
				OFFSET -2.56572 -7.04926 0.00000
				CHANNELS 3 Zrotation Yrotation Xrotation
				JOINT RightFoot
				{
					OFFSET -2.57974 -7.08778 0.00000
					CHANNELS 3 Zrotation Yrotation Xrotation
					JOINT RightToeBase
					{
						OFFSET -0.26704 -0.73369 2.20815
						CHANNELS 3 Zrotation Yrotation Xrotation
						End Site
						{
							OFFSET -0.00000 -0.00000 1.16246
						}
					}
				}
			}
		}
	}
	JOINT LowerBack
	{
		OFFSET 0 0 0
		CHANNELS 3 Zrotation Yrotation Xrotation
		JOINT Spine
		{
			OFFSET -0.04690 2.05196 -0.07017
			CHANNELS 3 Zrotation Yrotation Xrotation
			JOINT Spine1
			{
				OFFSET 0.04085 2.05260 0.00800
				CHANNELS 3 Zrotation Yrotation Xrotation
				JOINT Neck
				{
					OFFSET 0 0 0
					CHANNELS 3 Zrotation Yrotation Xrotation
					JOINT Neck1
					{
						OFFSET -0.03582 1.80995 0.19301
						CHANNELS 3 Zrotation Yrotation Xrotation
						JOINT Head
						{
							OFFSET 0.00952 1.80195 -0.36389
							CHANNELS 3 Zrotation Yrotation Xrotation
							End Site
							{
								OFFSET 0.00392 1.85062 -0.14494
							}
						}
					}
				}
				JOINT LeftShoulder
				{
					OFFSET 0 0 0
					CHANNELS 3 Zrotation Yrotation Xrotation
					JOINT LeftArm
					{
						OFFSET 3.55224 1.39726 -0.13667
						CHANNELS 3 Zrotation Yrotation Xrotation
						JOINT LeftForeArm
						{
							OFFSET 5.14507 -0.00000 -0.00000
							CHANNELS 3 Zrotation Yrotation Xrotation
							JOINT LeftHand
							{
								OFFSET 3.50646 -0.00000 0.00000
								CHANNELS 3 Zrotation Yrotation Xrotation
								JOINT LeftFingerBase
								{
									OFFSET 0 0 0
									CHANNELS 3 Zrotation Yrotation Xrotation
									JOINT LeftHandIndex1
									{
										OFFSET 0.62997 -0.00000 0.00000
										CHANNELS 3 Zrotation Yrotation Xrotation
										End Site
										{
											OFFSET 0.50790 -0.00000 0.00000
										}
									}
								}
								JOINT LThumb
								{
									OFFSET 0 0 0
									CHANNELS 3 Zrotation Yrotation Xrotation
									End Site
									{
										OFFSET 0.51565 -0.00000 0.51565
									}
								}
							}
						}
					}
				}
				JOINT RightShoulder
				{
					OFFSET 0 0 0
					CHANNELS 3 Zrotation Yrotation Xrotation
					JOINT RightArm
					{
						OFFSET -3.06467 1.61290 -0.28813
						CHANNELS 3 Zrotation Yrotation Xrotation
						JOINT RightForeArm
						{
							OFFSET -5.23200 -0.00000 -0.00000
							CHANNELS 3 Zrotation Yrotation Xrotation
							JOINT RightHand
							{
								OFFSET -3.65641 -0.00000 0.00000
								CHANNELS 3 Zrotation Yrotation Xrotation
								JOINT RightFingerBase
								{
									OFFSET 0 0 0
									CHANNELS 3 Zrotation Yrotation Xrotation
									JOINT RightHandIndex1
									{
										OFFSET -0.65681 -0.00000 0.00000
										CHANNELS 3 Zrotation Yrotation Xrotation
										End Site
										{
											OFFSET -0.52953 -0.00000 0.00000
										}
									}
								}
								JOINT RThumb
								{
									OFFSET 0 0 0
									CHANNELS 3 Zrotation Yrotation Xrotation
									End Site
									{
										OFFSET -0.53762 -0.00000 0.53762
									}
								}
							}
						}
					}
				}
			}
		}
	}
}
MOTION
Frames: 13
Frame Time: .0083333
0.6297 15.3455 40.0511 0 0 0 0 0 0 -21 0 0 0 0 0 0 0 0 0 0 0 0 0 0 21 0 0 0 0 0 0 0 0 0 0 0 0 0 0 0 0 0 0 0 0 0 0 -16 0 0 21 0 0 11 0 0 0 -8 0 0 0 0 0 0 0 0 0 0 0 0 0 0 0 0 0 0 0 0 8 0 0 0 0 0 0 0 0 0 0 0 0 0 0 0 0 0
0.6297 15.3455 40.0511 -176.9520 4.0743 -154.7280 0.0000 0.0000 0.0000 -1.4656 -13.1537 -88.2954 12.3678 18.5418 67.1499 -0.5711 -15.1249 -2.2398 0.4137 -4.1286 -11.4387 0.0000 0.0000 0.0000 22.8968 -2.2116 21.3287 0.0000 -0.0000 0.0000 -4.6768 -17.0803 39.5669 -3.7188 11.7765 -34.9460 5.2211 4.0948 15.7907 0.8793 6.6362 0.0140 -3.4780 3.0712 -8.3458 -5.4208 -4.7930 -12.6415 1.6949 -6.0745 -2.2730 1.1395 -3.1492 1.6588 0.0000 0.0000 0.0000 -52.3200 58.3447 53.0413 97.4253 -59.7906 -66.4260 -0.0000 0.0000 -11.1737 25.1970 -11.5361 -5.3753 -7.1250 0.0000 -0.0000 -1.3669 17.2704 0.8997 0.0000 0.0000 0.0000 70.2297 3.9952 44.2769 -142.1205 46.7622 -103.1223 0.0000 -0.0000 -9.8497 -25.9443 8.1660 -3.9533 7.1250 -0.0000 -0.0000 0.6602 -20.9133 0.3811
0.6611 15.3781 39.5050 -176.8150 3.7735 -154.5700 0.0000 0.0000 0.0000 -2.3865 -13.0834 -87.4073 12.2652 18.5005 66.8271 -0.5696 -14.9765 -1.9934 0.4149 -4.1346 -11.4556 0.0000 0.0000 0.0000 23.7618 -1.3059 17.8393 -0.1929 -2.8287 7.8021 -4.2631 -18.0032 37.8413 -1.3412 7.3325 -20.7043 5.3057 4.1045 15.5514 0.7625 6.6320 -0.0644 -3.6286 3.0616 -8.2729 -5.3810 -4.8941 -12.5274 2.0012 -6.2154 -2.3051 1.2256 -3.2074 1.6450 -0.0000 -0.0000 0.0000 -54.5569 59.1097 51.0644 98.9807 -59.6930 -67.7695 -0.0000 0.0000 -11.2902 25.2257 -10.9118 -5.0962 -7.1250 0.0000 -0.0000 -1.3111 17.9515 0.8434 -0.0000 -0.0000 0.0000 70.6183 3.1720 45.0679 -141.7717 46.9845 -102.8677 0.0000 -0.0000 -9.8552 -25.8755 7.9718 -3.8484 7.1250 -0.0000 -0.0000 0.7013 -21.1334 0.4013
0.6926 15.4076 38.9596 -176.7380 3.4106 -154.6050 0.0000 0.0000 0.0000 -3.3528 -13.0439 -86.1574 12.3781 18.5460 67.1825 -0.5927 -15.1390 -1.7738 0.3793 -3.9553 -10.9509 0.0000 0.0000 0.0000 24.3914 -0.6085 14.8448 -0.6841 -5.2880 14.7320 -3.6195 -19.6643 35.1664 -0.2163 2.9939 -8.2617 5.4485 4.0898 15.4335 0.6285 6.6151 0.0522 -3.8278 3.0583 -8.0486 -5.2762 -5.0238 -12.6948 2.2375 -6.4042 -2.3893 1.2693 -3.2981 1.6596 -0.0000 0.0000 0.0000 -57.2362 59.1641 48.7724 100.2214 -59.6015 -68.8402 -0.0000 0.0000 -11.7724 25.2849 -10.7244 -5.0235 -7.1250 0.0000 -0.0000 -1.2590 18.1513 0.8044 -0.0000 0.0000 0.0000 71.3592 2.3745 45.6064 -140.9122 47.5201 -102.2365 0.0000 -0.0000 -9.5302 -25.5203 7.7692 -3.6926 7.1250 -0.0000 -0.0000 0.9502 -21.3830 0.5384
0.7275 15.4296 38.4261 -176.5410 3.3508 -154.4800 0.0000 0.0000 0.0000 -4.2088 -12.6930 -84.8294 12.5337 18.6072 67.6707 -0.6195 -15.2859 -1.4354 0.3695 -3.9045 -10.8081 0.0000 0.0000 0.0000 24.5251 -0.8569 12.2556 -1.2088 -6.9749 19.6411 -3.0308 -19.7244 32.3968 -0.0239 0.9990 -2.7461 5.3726 4.1613 15.3165 0.5796 6.6819 0.0847 -3.8375 3.0978 -7.9434 -5.2818 -5.0870 -12.7065 2.4406 -6.4991 -2.5514 1.3313 -3.3433 1.6205 -0.0000 -0.0000 0.0000 -60.5309 59.0034 46.2439 101.3544 -59.5072 -69.8169 -0.0000 0.0000 -12.1655 25.7782 -10.3930 -4.9793 -7.1250 0.0000 -0.0000 -0.8928 18.4682 0.5641 -0.0000 -0.0000 0.0000 72.1296 1.5326 46.4286 -139.5376 48.3415 -101.2161 0.0000 -0.0000 -9.3452 -25.1791 7.5095 -3.5158 7.1250 -0.0000 -0.0000 1.1882 -21.6930 0.6650
0.7607 15.4642 37.8901 -176.3410 3.0720 -154.6370 0.0000 0.0000 0.0000 -4.8815 -12.6041 -82.4176 12.8213 18.7167 68.5695 -0.7103 -16.5275 -1.9220 0.0924 -1.9609 -5.3976 0.0000 0.0000 0.0000 24.6620 -1.4974 9.3692 -1.8601 -8.5684 24.4544 -2.4635 -18.6930 29.3105 -0.2690 3.3364 -9.2168 5.3559 4.0604 15.7031 0.7233 6.5934 0.0733 -3.6972 3.0497 -8.2013 -5.4848 -5.0647 -12.7187 2.5786 -6.4494 -2.6283 1.4147 -3.3164 1.6095 0.0000 0.0000 0.0000 -64.9533 57.8982 43.2044 101.8563 -59.4621 -70.2493 -0.0000 0.0000 -12.5361 25.8202 -10.1924 -4.8938 -7.1250 0.0000 -0.0000 -0.8518 18.6853 0.5341 0.0000 0.0000 0.0000 73.2433 -0.2281 46.9861 -136.9802 49.7607 -99.2842 0.0000 -0.0000 -7.9945 -24.7375 6.7351 -3.0930 7.1250 -0.0000 -0.0000 1.4861 -22.5721 0.8021
0.7936 15.4813 37.3563 -176.2140 2.7983 -154.6890 0.0000 0.0000 0.0000 -5.6730 -12.4627 -80.5058 13.0462 18.7988 69.2689 -0.7502 -17.4377 -2.8574 0.0103 -0.6565 -1.8042 0.0000 0.0000 0.0000 24.8292 -1.8014 6.8322 -2.6345 -10.0784 29.2311 -2.0309 -18.8541 27.0172 -0.0575 1.5479 -4.2578 5.3629 3.9954 15.8615 0.7321 6.5227 0.0954 -3.6915 3.0139 -8.2731 -5.5501 -5.0895 -12.7986 2.7746 -6.4809 -2.7345 1.4868 -3.3300 1.6010 -0.0000 0.0000 0.0000 -68.4894 56.9712 40.7244 102.5786 -59.3936 -70.8712 -0.0000 0.0000 -12.9210 25.8300 -10.0602 -4.8333 -7.1250 0.0000 -0.0000 -0.8375 18.8302 0.5224 -0.0000 0.0000 0.0000 74.2528 -1.5714 47.4298 -134.7845 50.8736 -97.5942 0.0000 -0.0000 -7.4282 -24.4093 6.2523 -2.8294 7.1250 -0.0000 -0.0000 1.7155 -23.1202 0.9045
0.8273 15.4938 36.8254 -176.1900 2.4989 -154.7660 0.0000 0.0000 0.0000 -6.5577 -12.3771 -78.3641 13.2539 18.8719 69.9122 -0.7477 -18.3572 -4.4192 0.0179 0.8643 2.3755 0.0000 0.0000 0.0000 24.9356 -2.0080 4.2389 -3.5281 -11.5045 34.0009 -1.6037 -19.0712 24.6429 -0.0015 -0.2473 0.6795 5.3071 3.8916 16.1004 0.7231 6.3919 0.1182 -3.6648 2.9483 -8.3993 -5.6138 -5.0938 -12.9354 2.9701 -6.4854 -2.8468 1.5592 -3.3314 1.5993 -0.0000 0.0000 0.0000 -71.9752 55.6282 38.3975 103.1032 -59.3412 -71.3226 -0.0000 0.0000 -13.2873 25.6921 -10.0378 -4.7933 -7.1250 0.0000 -0.0000 -0.9340 18.8677 0.5818 -0.0000 0.0000 0.0000 75.3994 -3.0320 47.6955 -132.0739 52.1241 -95.4726 0.0000 -0.0000 -6.9186 -24.1090 5.7436 -2.5643 7.1250 -0.0000 -0.0000 1.9274 -23.6922 0.9910
0.8624 15.5021 36.2974 -176.3570 2.1726 -154.8490 0.0000 0.0000 0.0000 -7.6381 -12.3874 -76.0216 13.3937 18.9197 70.3440 -0.6695 -19.1279 -6.5705 0.1397 2.4086 6.6362 0.0000 0.0000 0.0000 24.8974 -2.1207 1.5691 -4.5232 -12.8259 38.7201 -1.2065 -19.2784 22.3044 -0.1086 -2.1245 5.8498 5.1169 3.7440 16.3998 0.6650 6.1734 0.1352 -3.6021 2.8411 -8.5813 -5.6645 -5.0745 -13.1354 3.1713 -6.4612 -2.9708 1.6319 -3.3198 1.6032 0.0000 -0.0000 0.0000 -75.2772 53.8844 36.3202 103.4294 -59.3075 -71.6032 -0.0000 0.0000 -13.5794 25.4382 -10.0926 -4.7648 -7.1250 0.0000 -0.0000 -1.1168 18.8306 0.6967 0.0000 -0.0000 0.0000 76.6676 -4.5764 47.7553 -128.8005 53.4680 -92.8650 0.0000 -0.0000 -6.5502 -23.8778 5.2377 -2.3141 7.1250 -0.0000 -0.0000 2.0919 -24.2554 1.0485
0.8985 15.5067 35.7717 -176.7650 1.7890 -154.9390 0.0000 0.0000 0.0000 -8.9360 -12.5438 -73.5387 13.4913 18.9524 70.6447 -0.4774 -19.5724 -9.2836 0.3387 3.7398 10.3456 0.0000 0.0000 0.0000 24.6667 -2.1553 -1.2832 -5.6547 -14.0852 43.5797 -0.8342 -19.3782 19.9252 -0.3888 -4.0039 11.0876 4.7876 3.5377 16.7517 0.5383 5.8419 0.1560 -3.5126 2.6815 -8.8032 -5.6846 -5.0317 -13.4117 3.3761 -6.4114 -3.1150 1.7009 -3.2974 1.6114 0.0000 -0.0000 0.0000 -78.2830 51.7467 34.5709 103.5520 -59.2945 -71.7086 -0.0000 0.0000 -13.7679 25.0814 -10.1944 -4.7354 -7.1250 0.0000 -0.0000 -1.3747 18.7516 0.8601 0.0000 -0.0000 0.0000 78.0462 -6.1611 47.5782 -124.9302 54.8463 -89.7269 0.0000 -0.0000 -6.3915 -23.7237 4.7318 -2.0762 7.1250 -0.0000 -0.0000 2.2020 -24.8135 1.0754
0.9365 15.5079 35.2496 -177.4700 1.3693 -155.0350 0.0000 0.0000 0.0000 -10.4840 -12.8618 -70.9505 13.5451 18.9702 70.8103 -0.1653 -19.5805 -12.3323 0.5443 4.7267 13.1307 0.0000 0.0000 0.0000 24.1616 -2.1138 -4.3233 -6.9164 -15.2611 48.5575 -0.4879 -19.3222 17.4600 -0.8022 -5.7165 15.9641 4.2535 3.2770 17.1572 0.3291 5.3871 0.1891 -3.3688 2.4686 -9.0593 -5.6633 -4.9592 -13.7383 3.5747 -6.3335 -3.3141 1.7622 -3.2644 1.6064 0.0000 0.0000 0.0000 -80.9416 49.2338 33.1947 103.4522 -59.3051 -71.6228 -0.0000 0.0000 -13.8301 24.7208 -10.3277 -4.7183 -7.1250 0.0000 -0.0000 -1.6365 18.6386 1.0281 0.0000 0.0000 0.0000 79.5092 -7.7227 47.1576 -120.3839 56.2068 -85.9781 0.0000 -0.0000 -6.4759 -23.6750 4.2724 -1.8708 7.1250 -0.0000 -0.0000 2.2357 -25.3160 1.0658
0.9758 15.5021 34.7327 -178.4740 0.9117 -155.1360 0.0000 0.0000 0.0000 -12.2360 -13.3661 -68.3043 13.5702 18.9785 70.8874 0.2323 -19.2049 -15.4379 0.6938 5.3247 14.8371 0.0000 0.0000 0.0000 23.3468 -2.0202 -7.5624 -8.3014 -16.3365 53.6411 -0.1766 -19.0256 14.8753 -1.2578 -7.1096 20.0404 3.5103 2.9589 17.6225 0.0459 4.8043 0.2344 -3.1543 2.2032 -9.3502 -5.6001 -4.8512 -14.0910 3.7524 -6.2218 -3.5823 1.8119 -3.2191 1.5783 -0.0000 0.0000 0.0000 -83.2460 46.3857 32.2099 103.1263 -59.3388 -71.3425 -0.0000 0.0000 -13.7477 24.4290 -10.4084 -4.6914 -7.1250 0.0000 -0.0000 -1.8467 18.5769 1.1628 -0.0000 0.0000 0.0000 81.0175 -9.2320 46.4948 -115.1242 57.4751 -81.5737 0.0000 -0.0000 -6.8059 -23.7474 3.8843 -1.7071 7.1250 -0.0000 -0.0000 2.1797 -25.7367 1.0177
1.0164 15.4927 34.2196 -179.7500 0.4152 -155.2600 0.0000 0.0000 0.0000 -14.1315 -14.0576 -65.5655 13.5718 18.9790 70.8925 0.6607 -18.5952 -18.3482 0.7200 5.4221 15.1166 0.0000 0.0000 0.0000 22.2070 -1.9192 -10.9643 -9.7857 -17.2876 58.7697 0.0925 -18.4327 12.1127 -1.5875 -7.9482 22.5568 2.5644 2.5839 18.1535 -0.2882 4.0979 0.3059 -2.8434 1.8922 -9.6578 -5.4985 -4.7001 -14.4272 3.8905 -6.0698 -3.9517 1.8457 -3.1602 1.5076 0.0000 0.0000 0.0000 -85.2260 43.2277 31.6185 102.5672 -59.3947 -70.8614 -0.0000 0.0000 -13.5675 24.2879 -10.4052 -4.6594 -7.1250 0.0000 -0.0000 -1.9463 18.5932 1.2249 0.0000 0.0000 0.0000 82.5197 -10.6456 45.5948 -109.1299 58.5711 -76.4875 0.0000 -0.0000 -7.3765 -23.8887 3.6096 -1.5972 7.1250 -0.0000 -0.0000 2.0721 -26.0323 0.9531
